<?xml version="1.0" encoding="UTF-8" standalone="no"?>
<!-- Created with Inkscape (http://www.inkscape.org/) -->

<svg
   width="600mm"
   height="600mm"
   viewBox="0 0 600 600"
   version="1.1"
   id="svg848"
   inkscape:version="1.2.2 (732a01da63, 2022-12-09)"
   sodipodi:docname="Vietnam_road_sign_I423a.svg"
   xmlns:inkscape="http://www.inkscape.org/namespaces/inkscape"
   xmlns:sodipodi="http://sodipodi.sourceforge.net/DTD/sodipodi-0.dtd"
   xmlns="http://www.w3.org/2000/svg"
   xmlns:svg="http://www.w3.org/2000/svg"
   xmlns:rdf="http://www.w3.org/1999/02/22-rdf-syntax-ns#"
   xmlns:cc="http://creativecommons.org/ns#"
   xmlns:dc="http://purl.org/dc/elements/1.1/">
  <defs
     id="defs842" />
  <sodipodi:namedview
     id="base"
     pagecolor="#ffffff"
     bordercolor="#0A9646"
     borderopacity="1.0"
     inkscape:pageopacity="0.0"
     inkscape:pageshadow="2"
     inkscape:zoom="0.17497515"
     inkscape:cx="1425.9168"
     inkscape:cy="1688.8112"
     inkscape:document-units="mm"
     inkscape:current-layer="layer1"
     showgrid="false"
     inkscape:snap-global="false"
     inkscape:window-width="1920"
     inkscape:window-height="991"
     inkscape:window-x="-9"
     inkscape:window-y="-9"
     inkscape:window-maximized="1"
     fit-margin-top="0"
     fit-margin-left="0"
     fit-margin-right="0"
     fit-margin-bottom="0"
     showguides="false"
     inkscape:showpageshadow="2"
     inkscape:pagecheckerboard="0"
     inkscape:deskcolor="#FFFFFF" />
  <metadata
     id="metadata845">
    <rdf:RDF>
      <cc:Work
         rdf:about="">
        <dc:format>image/svg+xml</dc:format>
        <dc:type
           rdf:resource="http://purl.org/dc/dcmitype/StillImage" />
        <dc:title />
      </cc:Work>
    </rdf:RDF>
  </metadata>
  <g
     inkscape:label="Layer 1"
     inkscape:groupmode="layer"
     id="layer1"
     transform="translate(0,303)">
    <rect
       style="opacity:1;fill:#0046aa;fill-opacity:1;fill-rule:nonzero;stroke:none;stroke-width:2.54325962;stroke-linecap:butt;stroke-linejoin:miter;stroke-miterlimit:10;stroke-dasharray:none;stroke-opacity:1;paint-order:stroke fill markers"
       id="rect1393"
       width="600"
       height="600"
       x="0"
       y="-303" />
    <rect
       y="-298"
       x="5"
       height="590"
       width="590"
       id="rect1395"
       style="opacity:1;fill:#ffffff;fill-opacity:1;fill-rule:nonzero;stroke:none;stroke-width:2.5008719;stroke-linecap:butt;stroke-linejoin:miter;stroke-miterlimit:10;stroke-dasharray:none;stroke-opacity:1;paint-order:stroke fill markers" />
    <rect
       y="-288"
       x="15"
       height="570"
       width="570"
       id="rect1406"
       style="opacity:1;fill:#0046aa;fill-opacity:1;fill-rule:nonzero;stroke:none;stroke-width:2.41609669;stroke-linecap:butt;stroke-linejoin:miter;stroke-miterlimit:10;stroke-dasharray:none;stroke-opacity:1;paint-order:stroke fill markers" />
    <path
       cx="150"
       cy="147"
       r="150"
       id="path8376"
       style="opacity:1;fill:#F00A0A;fill-opacity:1;fill-rule:nonzero;stroke:none;stroke-width:3.92256045;stroke-linecap:butt;stroke-linejoin:miter;stroke-miterlimit:4;stroke-dasharray:none;stroke-opacity:1;paint-order:stroke fill markers"
       d=""
       inkscape:connector-curvature="0" />
    <path
       id="path1012"
       style="fill:#ffffff;fill-opacity:1;fill-rule:evenodd;stroke:none;stroke-width:2.72987"
       d="m 223.03304,-174.75079 c 25.00221,-1.61448 44.36672,-23.5041 44.36672,-47.8014 0,-26.78743 -21.78851,-48.67686 -48.44937,-48.67686 -26.60377,0 -48.38406,21.88943 -48.38406,48.67686 0,8.07167 1.60698,16.22561 5.62686,23.50392 16.95686,244.068984 16.95686,244.068984 16.95686,244.068984 178.34429,0 178.34429,0 178.34429,0 72.63734,171.876846 72.63734,171.876846 72.63734,171.876846 96.03284,-38.10985 96.03284,-38.10985 96.03284,-38.10985 -14.54387,-34.87548 -14.54387,-34.87548 -14.54387,-34.87548 -54.00831,19.4598 -54.00831,19.4598 -54.00831,19.4598 C 401.37182,-0.37302494 401.37182,-0.37302494 401.37182,-0.37302494 235.91546,0.44770608 235.91546,0.44770608 235.91546,0.44770608 c -2.424,-30.83674808 -2.424,-30.83674808 -2.424,-30.83674808 119.42821,0 119.42821,0 119.42821,0 0,-46.187105 0,-46.187105 0,-46.187105 -124.2489,0 -124.2489,0 -124.2489,0 z" />
    <path
       id="path1014"
       style="fill:#ffffff;fill-opacity:1;fill-rule:evenodd;stroke:none;stroke-width:2.72987"
       d="m 402.16165,175.55642 c -29.87755,59.98829 -92.79174,98.90539 -159.7641,98.90539 -98.50581,0 -178.387871,-80.25553 -178.387871,-179.158231 0,-69.764821 41.147501,-133.791652 104.143581,-163.01449 4.02001,53.547487 4.02001,53.547487 4.02001,53.547487 -37.12766,23.4765652 -59.71144,65.641517 -59.71144,109.467003 0,72.107181 58.1045,130.481181 129.93572,130.481181 65.33824,0 121.03498,-50.22834 128.27977,-115.13101 z" />
  </g>
</svg>
